<svg xmlns="http://www.w3.org/2000/svg" viewBox="0 0 613.49 250"><defs><style>.cls-1{isolation:isolate;}.cls-2{fill:#2991cc;}.cls-2,.cls-3{mix-blend-mode:screen;}.cls-3{fill:#ff4d56;}</style></defs><title>logo</title><g class="cls-1"><g id="WW_Logo" data-name="WW Logo"><polygon class="cls-2" points="111.69 250 71.69 250 0 0 40 0 111.69 250"/><polygon class="cls-2" points="71.69 250 111.69 250 183.37 0 143.37 0 71.69 250"/><polygon class="cls-2" points="255.06 250 215.06 250 143.37 0 183.37 0 255.06 250"/><polygon class="cls-2" points="215.06 250 255.06 250 326.75 0 286.75 0 215.06 250"/><polygon class="cls-3" points="398.44 250 358.44 250 286.75 0 326.75 0 398.44 250"/><polygon class="cls-3" points="358.43 250 398.43 250 470.12 0 430.12 0 358.43 250"/><polygon class="cls-3" points="541.81 250 501.81 250 430.12 0 470.12 0 541.81 250"/><polygon class="cls-3" points="501.81 250 541.81 250 613.5 0 573.5 0 501.81 250"/></g></g></svg>